<svg width="100%" height="100%" tabindex="0" data-element-id="__implicitroot_1" viewBox="167.8643035888672 -10 504.2713623046875 366" xmlns="http://www.w3.org/2000/svg"><g class="viewport" transform="matrix(0.643123 0 0 0.643123 81.3959 -30.2268)"><g class="layer-base"></g><g class="layer-root-1" data-element-id="__implicitroot_1"><g class="djs-group"><g class="djs-element djs-shape" data-element-id="shape_5101" style="display: block;" transform="matrix(1 0 0 1 155 120)"><g class="djs-visual"><svg xmlns="http://www.w3.org/2000/svg" fill=" #000000" viewBox="0 0 24 26" width="75" height="75"><path d="M12 5.9c1.16 0 2.1.94 2.1 2.1s-.94 2.1-2.1 2.1S9.9 9.16 9.9 8s.94-2.1 2.1-2.1m0 9c2.97 0 6.1 1.46 6.1 2.1v1.1H5.9V17c0-.64 3.13-2.1 6.1-2.1M12 4C9.79 4 8 5.79 8 8s1.79 4 4 4 4-1.79 4-4-1.79-4-4-4zm0 9c-2.67 0-8 1.34-8 4v3h16v-3c0-2.66-5.33-4-8-4z"></path><path d="M0 0h24v24H0z" fill="none"></path></svg><text lineHeight="1.2" class="djs-label" style="font-family: Arial, sans-serif; font-size: 12px; font-weight: normal; fill: rgb(0, 0, 0);"><tspan x="10.8203125" y="75">Mecanico</tspan></text></g><rect class="djs-hit djs-hit-all" x="0" y="0" width="75" height="75" style="fill: none; stroke-opacity: 0; stroke: white; stroke-width: 15px;"></rect><rect x="-5" y="-5" rx="4" width="85" height="85" class="djs-outline" style="fill: none;"></rect></g></g><g class="djs-group"><g class="djs-element djs-shape" data-element-id="shape_5202" style="display: block;" transform="matrix(1 0 0 1 535 52)"><g class="djs-visual"><svg xmlns="http://www.w3.org/2000/svg" fill=" #000000" width="48.75" height="48.75" viewBox="0 0 24 26" x="12.5" y="12.5"><path fill="none" d="M0 0h24v24H0V0z"></path><path d="M8 16h8v2H8zm0-4h8v2H8zm6-10H6c-1.1 0-2 .9-2 2v16c0 1.1.89 2 1.99 2H18c1.1 0 2-.9 2-2V8l-6-6zm4 18H6V4h7v5h5v11z"></path></svg><text lineHeight="1.2" class="djs-label" style="font-family: Arial, sans-serif; font-size: 12px; font-weight: normal; fill: rgb(0, 0, 0);"><tspan x="9.8203125" y="74.75">Ordem de </tspan><tspan x="16.6171875" y="88.75">Servico</tspan></text></g><rect class="djs-hit djs-hit-all" x="0" y="0" width="75" height="75" style="fill: none; stroke-opacity: 0; stroke: white; stroke-width: 15px;"></rect><rect x="-5" y="-5" rx="4" width="85" height="85" class="djs-outline" style="fill: none;"></rect></g></g><g class="djs-group"><g class="djs-element djs-shape" data-element-id="shape_5303" style="display: block;" transform="matrix(1 0 0 1 155 280)"><g class="djs-visual"><svg xmlns="http://www.w3.org/2000/svg" fill=" #000000" viewBox="0 0 24 26" width="75" height="75"><path d="M12 5.9c1.16 0 2.1.94 2.1 2.1s-.94 2.1-2.1 2.1S9.9 9.16 9.9 8s.94-2.1 2.1-2.1m0 9c2.97 0 6.1 1.46 6.1 2.1v1.1H5.9V17c0-.64 3.13-2.1 6.1-2.1M12 4C9.79 4 8 5.79 8 8s1.79 4 4 4 4-1.79 4-4-1.79-4-4-4zm0 9c-2.67 0-8 1.34-8 4v3h16v-3c0-2.66-5.33-4-8-4z"></path><path d="M0 0h24v24H0z" fill="none"></path></svg><text lineHeight="1.2" class="djs-label" style="font-family: Arial, sans-serif; font-size: 12px; font-weight: normal; fill: rgb(0, 0, 0);"><tspan x="7.9150390625" y="75">Almoxarife</tspan></text></g><rect class="djs-hit djs-hit-all" x="0" y="0" width="75" height="75" style="fill: none; stroke-opacity: 0; stroke: white; stroke-width: 15px;"></rect><rect x="-5" y="-5" rx="4" width="85" height="85" class="djs-outline" style="fill: none;"></rect></g></g><g class="djs-group"><g class="djs-element djs-shape" data-element-id="shape_5404" style="display: block;" transform="matrix(1 0 0 1 535 280)"><g class="djs-visual"><svg xmlns="http://www.w3.org/2000/svg" fill=" #000000" viewBox="0 0 24 26" width="48.75" height="48.75" x="12.5" y="12.5"><path fill="none" d="M0,0h24v24H0V0z"></path><path d="M9.17,6l2,2H20v10L4,18V6H9.17 M10,4H4C2.9,4,2.01,4.9,2.01,6L2,18c0,1.1,0.9,2,2,2h16c1.1,0,2-0.9,2-2V8c0-1.1-0.9-2-2-2 h-8L10,4L10,4z"></path></svg><text lineHeight="1.2" class="djs-label" style="font-family: Arial, sans-serif; font-size: 12px; font-weight: normal; fill: rgb(0, 0, 0);"><tspan x="12.1484375" y="74.75">pecas do </tspan><tspan x="15.2734375" y="88.75">estoque</tspan></text></g><rect class="djs-hit djs-hit-all" x="0" y="0" width="75" height="75" style="fill: none; stroke-opacity: 0; stroke: white; stroke-width: 15px;"></rect><rect x="-5" y="-5" rx="4" width="85" height="85" class="djs-outline" style="fill: none;"></rect></g></g><g class="djs-group"><g class="djs-element djs-shape" data-element-id="shape_5505" style="display: block;" transform="matrix(1 0 0 1 535 184)"><g class="djs-visual"><svg xmlns="http://www.w3.org/2000/svg" fill=" #000000" width="48.75" height="48.75" viewBox="0 0 24 26" x="12.5" y="12.5"><path fill="none" d="M0 0h24v24H0V0z"></path><path d="M8 16h8v2H8zm0-4h8v2H8zm6-10H6c-1.1 0-2 .9-2 2v16c0 1.1.89 2 1.99 2H18c1.1 0 2-.9 2-2V8l-6-6zm4 18H6V4h7v5h5v11z"></path></svg><text lineHeight="1.2" class="djs-label" style="font-family: Arial, sans-serif; font-size: 12px; font-weight: normal; fill: rgb(0, 0, 0);"><tspan x="17.6171875" y="74.75">servico </tspan><tspan x="10.8984375" y="88.75">finalizado</tspan></text></g><rect class="djs-hit djs-hit-all" x="0" y="0" width="75" height="75" style="fill: none; stroke-opacity: 0; stroke: white; stroke-width: 15px;"></rect><rect x="-5" y="-5" rx="4" width="85" height="85" class="djs-outline" style="fill: none;"></rect></g></g><g class="djs-group"><g class="djs-element djs-shape" data-element-id="shape_5606" style="display: block;" transform="matrix(1 0 0 1 155 505)"><g class="djs-visual"><svg xmlns="http://www.w3.org/2000/svg" fill=" #000000" viewBox="0 0 24 26" width="75" height="75"><path d="M12 5.9c1.16 0 2.1.94 2.1 2.1s-.94 2.1-2.1 2.1S9.9 9.16 9.9 8s.94-2.1 2.1-2.1m0 9c2.97 0 6.1 1.46 6.1 2.1v1.1H5.9V17c0-.64 3.13-2.1 6.1-2.1M12 4C9.79 4 8 5.79 8 8s1.79 4 4 4 4-1.79 4-4-1.79-4-4-4zm0 9c-2.67 0-8 1.34-8 4v3h16v-3c0-2.66-5.33-4-8-4z"></path><path d="M0 0h24v24H0z" fill="none"></path></svg><text lineHeight="1.2" class="djs-label" style="font-family: Arial, sans-serif; font-size: 12px; font-weight: normal; fill: rgb(0, 0, 0);"><tspan x="9.0244140625" y="75">Atendente</tspan></text></g><rect class="djs-hit djs-hit-all" x="0" y="0" width="75" height="75" style="fill: none; stroke-opacity: 0; stroke: white; stroke-width: 15px;"></rect><rect x="-5" y="-5" rx="4" width="85" height="85" class="djs-outline" style="fill: none;"></rect></g></g><g class="djs-group"><g class="djs-element djs-shape" data-element-id="shape_5707" style="display: block;" transform="matrix(1 0 0 1 354 505)"><g class="djs-visual"><svg xmlns="http://www.w3.org/2000/svg" fill=" #000000" viewBox="0 0 24 26" width="48.75" height="48.75" x="12.5" y="12.5"><path fill="none" d="M0,0h24v24H0V0z"></path><path fill-opacity="0.9" d="M12,1.95c-5.52,0-10,4.48-10,10s4.48,10,10,10h5v-2h-5c-4.34,0-8-3.66-8-8s3.66-8,8-8s8,3.66,8,8v1.43 c0,0.79-0.71,1.57-1.5,1.57S17,14.17,17,13.38v-1.43c0-2.76-2.24-5-5-5s-5,2.24-5,5s2.24,5,5,5c1.38,0,2.64-0.56,3.54-1.47 c0.65,0.89,1.77,1.47,2.96,1.47c1.97,0,3.5-1.6,3.5-3.57v-1.43C22,6.43,17.52,1.95,12,1.95z M12,14.95c-1.66,0-3-1.34-3-3 s1.34-3,3-3s3,1.34,3,3S13.66,14.95,12,14.95z"></path></svg><text lineHeight="1.2" class="djs-label" style="font-family: Arial, sans-serif; font-size: 12px; font-weight: normal; fill: rgb(0, 0, 0);"><tspan x="7.4375" y="74.75">notificacao</tspan></text></g><rect class="djs-hit djs-hit-all" x="0" y="0" width="75" height="75" style="fill: none; stroke-opacity: 0; stroke: white; stroke-width: 15px;"></rect><rect x="-5" y="-5" rx="4" width="85" height="85" class="djs-outline" style="fill: none;"></rect></g></g><g class="djs-group"><g class="djs-element djs-shape" data-element-id="shape_5808" style="display: block;" transform="matrix(1 0 0 1 535 505)"><g class="djs-visual"><svg xmlns="http://www.w3.org/2000/svg" fill=" #000000" viewBox="0 0 24 26" width="75" height="75"><path d="M12 5.9c1.16 0 2.1.94 2.1 2.1s-.94 2.1-2.1 2.1S9.9 9.16 9.9 8s.94-2.1 2.1-2.1m0 9c2.97 0 6.1 1.46 6.1 2.1v1.1H5.9V17c0-.64 3.13-2.1 6.1-2.1M12 4C9.79 4 8 5.79 8 8s1.79 4 4 4 4-1.79 4-4-1.79-4-4-4zm0 9c-2.67 0-8 1.34-8 4v3h16v-3c0-2.66-5.33-4-8-4z"></path><path d="M0 0h24v24H0z" fill="none"></path></svg><text lineHeight="1.2" class="djs-label" style="font-family: Arial, sans-serif; font-size: 12px; font-weight: normal; fill: rgb(0, 0, 0);"><tspan x="17.9453125" y="75">Cliente</tspan></text></g><rect class="djs-hit djs-hit-all" x="0" y="0" width="75" height="75" style="fill: none; stroke-opacity: 0; stroke: white; stroke-width: 15px;"></rect><rect x="-5" y="-5" rx="4" width="85" height="85" class="djs-outline" style="fill: none;"></rect></g></g><g class="djs-group"><g class="djs-element djs-shape" data-element-id="shape_5909" style="display: block;" transform="matrix(1 0 0 1 823 505)"><g class="djs-visual"><svg xmlns="http://www.w3.org/2000/svg" fill=" #000000" width="75" height="75" viewBox="0 0 24 26"><path fill="none" d="M0 0h24v24H0V0z"></path><path d="M18.92 6.01C18.72 5.42 18.16 5 17.5 5h-11c-.66 0-1.21.42-1.42 1.01L3 12v8c0 .55.45 1 1 1h1c.55 0 1-.45 1-1v-1h12v1c0 .55.45 1 1 1h1c.55 0 1-.45 1-1v-8l-2.08-5.99zM6.85 7h10.29l1.08 3.11H5.77L6.85 7zM19 17H5v-5h14v5z"></path><circle cx="7.5" cy="14.5" r="1.5"></circle><circle cx="16.5" cy="14.5" r="1.5"></circle></svg><text lineHeight="1.2" class="djs-label" style="font-family: Arial, sans-serif; font-size: 12px; font-weight: normal; fill: rgb(0, 0, 0);"><tspan x="17.9453125" y="75">veiculo</tspan></text></g><rect class="djs-hit djs-hit-all" x="0" y="0" width="75" height="75" style="fill: none; stroke-opacity: 0; stroke: white; stroke-width: 15px;"></rect><rect x="-5" y="-5" rx="4" width="85" height="85" class="djs-outline" style="fill: none;"></rect></g></g><g class="djs-group"><g class="djs-element djs-shape" data-element-id="shape_6010" style="display: block;" transform="matrix(1 0 0 1 405 380)"><g class="djs-visual"><rect x="0" y="0" width="200" height="58" rx="0" ry="0" style="stroke: none; stroke-width: 2px; fill: none;"></rect><path d="m 0, 0 m 10,0 l -10,0 l 0,58 l 10,0" style="fill: none; stroke-width: 2px; stroke: black;"></path><text lineHeight="1.2" class="djs-label" style="font-family: Arial, sans-serif; font-size: 12px; font-weight: normal; fill: black;"><tspan x="5" y="15.799999999999999">Pecas sao reservadas na </tspan><tspan x="5" y="30.199999999999996">aprovacao do orcamento, nao na</tspan><tspan x="5" y="44.599999999999994">execucao</tspan></text></g><rect class="djs-hit djs-hit-all" x="0" y="0" width="200" height="58" style="fill: none; stroke-opacity: 0; stroke: white; stroke-width: 15px;"></rect><rect x="-5" y="-5" rx="4" width="210" height="68" class="djs-outline" style="fill: none;"></rect></g></g><g class="djs-group"><g class="djs-element djs-connection" data-element-id="connection_6101" style="display: block;"><g class="djs-visual"><path style="stroke: rgb(0, 0, 0); fill: none; stroke-width: 1.5px; stroke-linejoin: round; marker-end: url(&quot;#activity-black-#000000-9by7ikajrdiii9xfoxvmzzoqb&quot;);" d="M228,151L535,90"></path><text lineHeight="1.2" wordWrap="break-word" overflowWrap="break-word" hyphens="auto" class="djs-label" style="font-family: Arial, sans-serif; font-size: 11px; font-weight: normal; fill: black;"><tspan x="398.6269777851407" y="133.6269777851407">executa servico conforme</tspan></text><path d="
      M 248 146.00527409370852
      m 11,0
      a 11,11 0 1,0 -22,0
      a 11,11 0 1,0 22,0
      " style="fill: white; stroke: black;"></path><text lineHeight="1.2" position="absolute" class="djs-labelNumber" style="font-family: Arial, sans-serif; font-size: 11px; font-weight: normal; fill: black;"><tspan x="244" y="150.00527409370852">1</tspan></text></g><path d="M228,151L535,90" class="djs-hit djs-hit-stroke" style="fill: none; stroke-opacity: 0; stroke: white; stroke-width: 15px;"></path><rect x="223" y="85" rx="4" width="317" height="71" class="djs-outline" style="fill: none;"></rect></g></g><g class="djs-group"><g class="djs-element djs-connection" data-element-id="connection_6202" style="display: block;"><g class="djs-visual"><path style="stroke: rgb(0, 0, 0); fill: none; stroke-width: 1.5px; stroke-linejoin: round; marker-end: url(&quot;#activity-black-#000000-9by7ikajrdiii9xfoxvmzzoqb&quot;);" d="M236,318L535,318"></path><text lineHeight="1.2" wordWrap="break-word" overflowWrap="break-word" hyphens="auto" class="djs-label" style="font-family: Arial, sans-serif; font-size: 11px; font-weight: normal; fill: black;"><tspan x="361.65" y="333">reserva</tspan></text><path d="
      M 256 318
      m 11,0
      a 11,11 0 1,0 -22,0
      a 11,11 0 1,0 22,0
      " style="fill: white; stroke: black;"></path><text lineHeight="1.2" position="absolute" class="djs-labelNumber" style="font-family: Arial, sans-serif; font-size: 11px; font-weight: normal; fill: black;"><tspan x="252" y="322">2</tspan></text></g><path d="M236,318L535,318" class="djs-hit djs-hit-stroke" style="fill: none; stroke-opacity: 0; stroke: white; stroke-width: 15px;"></path><rect x="231" y="313" rx="4" width="309" height="10" class="djs-outline" style="fill: none;"></rect></g></g><g class="djs-group"><g class="djs-element djs-connection" data-element-id="connection_6303" style="display: block;"><g class="djs-visual"><path style="stroke: rgb(0, 0, 0); fill: none; stroke-width: 1.5px; stroke-linejoin: round; marker-end: url(&quot;#activity-black-#000000-9by7ikajrdiii9xfoxvmzzoqb&quot;);" d="M236,166L535,222"></path><text lineHeight="1.2" wordWrap="break-word" overflowWrap="break-word" hyphens="auto" class="djs-label" style="font-family: Arial, sans-serif; font-size: 11px; font-weight: normal; fill: black;"><tspan x="391.2680141743668" y="185.17867611624453">finaliza</tspan></text><path d="
      M 256 169.53602834873357
      m 11,0
      a 11,11 0 1,0 -22,0
      a 11,11 0 1,0 22,0
      " style="fill: white; stroke: black;"></path><text lineHeight="1.2" position="absolute" class="djs-labelNumber" style="font-family: Arial, sans-serif; font-size: 11px; font-weight: normal; fill: black;"><tspan x="252" y="173.53602834873357">3</tspan></text></g><path d="M236,166L535,222" class="djs-hit djs-hit-stroke" style="fill: none; stroke-opacity: 0; stroke: white; stroke-width: 15px;"></path><rect x="231" y="161" rx="4" width="309" height="66" class="djs-outline" style="fill: none;"></rect></g></g><g class="djs-group"><g class="djs-element djs-connection" data-element-id="connection_6404" style="display: block;"><g class="djs-visual"><path style="stroke: rgb(0, 0, 0); fill: none; stroke-width: 1.5px; stroke-linejoin: round; marker-end: url(&quot;#activity-black-#000000-9by7ikajrdiii9xfoxvmzzoqb&quot;);" d="M236,543L354,543"></path><text lineHeight="1.2" wordWrap="break-word" overflowWrap="break-word" hyphens="auto" class="djs-label" style="font-family: Arial, sans-serif; font-size: 11px; font-weight: normal; fill: black;"><tspan x="278.8" y="558">cria</tspan></text><path d="
      M 256 543
      m 11,0
      a 11,11 0 1,0 -22,0
      a 11,11 0 1,0 22,0
      " style="fill: white; stroke: black;"></path><text lineHeight="1.2" position="absolute" class="djs-labelNumber" style="font-family: Arial, sans-serif; font-size: 11px; font-weight: normal; fill: black;"><tspan x="252" y="547">4</tspan></text></g><path d="M236,543L354,543" class="djs-hit djs-hit-stroke" style="fill: none; stroke-opacity: 0; stroke: white; stroke-width: 15px;"></path><rect x="231" y="538" rx="4" width="128" height="10" class="djs-outline" style="fill: none;"></rect></g></g><g class="djs-group"><g class="djs-element djs-connection" data-element-id="connection_6405" style="display: block;"><g class="djs-visual"><path style="stroke: black; fill: none; stroke-width: 1.5px; stroke-linejoin: round; marker-end: url(&quot;#activity-black-black-9by7ikajrdiii9xfoxvmzzoqb&quot;);" d="M435,543L535,543"></path><text lineHeight="1.2" wordWrap="break-word" overflowWrap="break-word" hyphens="auto" class="djs-label" style="font-family: Arial, sans-serif; font-size: 11px; font-weight: normal; fill: black;"><tspan x="468.8" y="558">para</tspan></text></g><path d="M435,543L535,543" class="djs-hit djs-hit-stroke" style="fill: none; stroke-opacity: 0; stroke: white; stroke-width: 15px;"></path><rect x="430" y="538" rx="4" width="110" height="10" class="djs-outline" style="fill: none;"></rect></g></g><g class="djs-group"><g class="djs-element djs-connection" data-element-id="connection_6505" style="display: block;"><g class="djs-visual"><path style="stroke: rgb(0, 0, 0); fill: none; stroke-width: 1.5px; stroke-linejoin: round; marker-end: url(&quot;#activity-black-#000000-9by7ikajrdiii9xfoxvmzzoqb&quot;);" d="M616,543L823,543"></path><text lineHeight="1.2" wordWrap="break-word" overflowWrap="break-word" hyphens="auto" class="djs-label" style="font-family: Arial, sans-serif; font-size: 11px; font-weight: normal; fill: black;"><tspan x="698.2" y="558">retira</tspan></text><path d="
      M 636 543
      m 11,0
      a 11,11 0 1,0 -22,0
      a 11,11 0 1,0 22,0
      " style="fill: white; stroke: black;"></path><text lineHeight="1.2" position="absolute" class="djs-labelNumber" style="font-family: Arial, sans-serif; font-size: 11px; font-weight: normal; fill: black;"><tspan x="632" y="547">5</tspan></text></g><path d="M616,543L823,543" class="djs-hit djs-hit-stroke" style="fill: none; stroke-opacity: 0; stroke: white; stroke-width: 15px;"></path><rect x="611" y="538" rx="4" width="217" height="10" class="djs-outline" style="fill: none;"></rect></g></g><g class="djs-group"><g class="djs-element djs-connection" data-element-id="connection_6606" style="display: block;"><g class="djs-visual"><path style="stroke: black; stroke-width: 1.5px; stroke-linejoin: round; stroke-dasharray: 5, 5;" d="M515,350L475,380"></path></g><path d="M515,350L475,380" class="djs-hit djs-hit-stroke" style="fill: none; stroke-opacity: 0; stroke: white; stroke-width: 15px;"></path><rect x="470" y="345" rx="4" width="50" height="40" class="djs-outline" style="fill: none;"></rect></g></g></g><g class="layer-resizers"></g><g class="layer-selectionOutline"></g></g><defs><marker id="activity-black-#000000-9by7ikajrdiii9xfoxvmzzoqb" viewBox="0 0 20 20" refX="11" refY="10" markerWidth="10" markerHeight="10" orient="auto"><path d="M 1 5 L 11 10 L 1 15 Z" style="fill: rgb(0, 0, 0); stroke-width: 1px; stroke-linecap: round; stroke-dasharray: 10000, 1; stroke: rgb(0, 0, 0);"></path></marker><marker id="activity-black-black-9by7ikajrdiii9xfoxvmzzoqb" viewBox="0 0 20 20" refX="11" refY="10" markerWidth="10" markerHeight="10" orient="auto"><path d="M 1 5 L 11 10 L 1 15 Z" style="fill: black; stroke-width: 1px; stroke-linecap: round; stroke-dasharray: 10000, 1; stroke: black;"></path></marker></defs></svg>